<svg preserveAspectRatio="none" overflow="visible" style="display: block;" width="35" height="35" viewBox="0 0 35 35" fill="none" xmlns="http://www.w3.org/2000/svg">
<path id="Vector" d="M17.5 0C7.875 0 0 7.875 0 17.5C0 27.125 7.875 35 17.5 35C27.125 35 35 27.125 35 17.5C35 7.875 27.125 0 17.5 0ZM17.5 31.5C9.7825 31.5 3.5 25.2175 3.5 17.5C3.5 9.7825 9.7825 3.5 17.5 3.5C25.2175 3.5 31.5 9.7825 31.5 17.5C31.5 25.2175 25.2175 31.5 17.5 31.5ZM25.5325 9.765L14 21.2975L9.4675 16.7825L7 19.25L14 26.25L28 12.25L25.5325 9.765Z" fill="#F5B800"/>
</svg>
